<mxfile modified="2021-07-14T15:35:38.738Z" host="app.diagrams.net" agent="5.0 (Macintosh; Intel Mac OS X 10_16_0) AppleWebKit/537.36 (KHTML, like Gecko) Chrome/85.0.4183.83 Safari/537.36" etag="YgOR-XGtpYv98llN8rUT" version="14.8.6" type="github">
  <diagram id="066aa9eb-ce78-68f7-c631-dc50e09507f3" name="Page-1">
    <mxGraphModel dx="1426" dy="1803" grid="1" gridSize="10" guides="1" tooltips="1" connect="1" arrows="1" fold="1" page="1" pageScale="1" pageWidth="850" pageHeight="1100" background="#ffffff" math="0" shadow="0">
      <root>
        <mxCell id="0" />
        <mxCell id="1" parent="0" />
        <mxCell id="bx_4jBKmrVyLjTU5XmQp-151" value="" style="rounded=1;whiteSpace=wrap;html=1;" parent="1" vertex="1">
          <mxGeometry x="392" y="1370" width="258" height="80" as="geometry" />
        </mxCell>
        <mxCell id="bx_4jBKmrVyLjTU5XmQp-150" value="" style="rounded=1;whiteSpace=wrap;html=1;" parent="1" vertex="1">
          <mxGeometry x="390" y="1282" width="240" height="78" as="geometry" />
        </mxCell>
        <mxCell id="bx_4jBKmrVyLjTU5XmQp-149" value="" style="rounded=1;whiteSpace=wrap;html=1;" parent="1" vertex="1">
          <mxGeometry x="390" y="1200" width="240" height="70" as="geometry" />
        </mxCell>
        <mxCell id="bx_4jBKmrVyLjTU5XmQp-148" value="" style="rounded=1;whiteSpace=wrap;html=1;" parent="1" vertex="1">
          <mxGeometry x="386" y="1106" width="240" height="84" as="geometry" />
        </mxCell>
        <mxCell id="bx_4jBKmrVyLjTU5XmQp-153" style="edgeStyle=orthogonalEdgeStyle;rounded=0;orthogonalLoop=1;jettySize=auto;html=1;exitX=1;exitY=0.5;exitDx=0;exitDy=0;entryX=0;entryY=0.5;entryDx=0;entryDy=0;strokeWidth=2;" parent="1" source="bx_4jBKmrVyLjTU5XmQp-147" target="bx_4jBKmrVyLjTU5XmQp-148" edge="1">
          <mxGeometry relative="1" as="geometry">
            <Array as="points">
              <mxPoint x="340" y="1275" />
              <mxPoint x="340" y="1148" />
            </Array>
          </mxGeometry>
        </mxCell>
        <mxCell id="bx_4jBKmrVyLjTU5XmQp-154" style="edgeStyle=orthogonalEdgeStyle;rounded=0;orthogonalLoop=1;jettySize=auto;html=1;exitX=1;exitY=0.5;exitDx=0;exitDy=0;entryX=0;entryY=0.5;entryDx=0;entryDy=0;strokeWidth=2;" parent="1" source="bx_4jBKmrVyLjTU5XmQp-147" target="bx_4jBKmrVyLjTU5XmQp-149" edge="1">
          <mxGeometry relative="1" as="geometry">
            <Array as="points">
              <mxPoint x="340" y="1275" />
              <mxPoint x="340" y="1235" />
            </Array>
          </mxGeometry>
        </mxCell>
        <mxCell id="bx_4jBKmrVyLjTU5XmQp-155" style="edgeStyle=orthogonalEdgeStyle;rounded=0;orthogonalLoop=1;jettySize=auto;html=1;exitX=1;exitY=0.5;exitDx=0;exitDy=0;entryX=0;entryY=0.5;entryDx=0;entryDy=0;strokeWidth=2;" parent="1" source="bx_4jBKmrVyLjTU5XmQp-147" target="bx_4jBKmrVyLjTU5XmQp-150" edge="1">
          <mxGeometry relative="1" as="geometry">
            <Array as="points">
              <mxPoint x="340" y="1275" />
              <mxPoint x="340" y="1321" />
            </Array>
          </mxGeometry>
        </mxCell>
        <mxCell id="bx_4jBKmrVyLjTU5XmQp-156" style="edgeStyle=orthogonalEdgeStyle;rounded=0;orthogonalLoop=1;jettySize=auto;html=1;exitX=1;exitY=0.5;exitDx=0;exitDy=0;entryX=0;entryY=0.5;entryDx=0;entryDy=0;strokeWidth=2;" parent="1" source="bx_4jBKmrVyLjTU5XmQp-147" target="bx_4jBKmrVyLjTU5XmQp-151" edge="1">
          <mxGeometry relative="1" as="geometry">
            <Array as="points">
              <mxPoint x="340" y="1275" />
              <mxPoint x="340" y="1410" />
            </Array>
          </mxGeometry>
        </mxCell>
        <mxCell id="bx_4jBKmrVyLjTU5XmQp-147" value="" style="rounded=1;whiteSpace=wrap;html=1;" parent="1" vertex="1">
          <mxGeometry x="175" y="1210" width="130" height="130" as="geometry" />
        </mxCell>
        <mxCell id="3" value="" style="shape=image;html=1;verticalAlign=top;verticalLabelPosition=bottom;labelBackgroundColor=#ffffff;imageAspect=0;aspect=fixed;image=https://cdn2.iconfinder.com/data/icons/ios-7-icons/50/user_male2-128.png;dashed=1;strokeColor=#000000;strokeWidth=1;fillColor=#000000;gradientColor=none;fontSize=36;align=left;" parent="1" vertex="1">
          <mxGeometry x="40" y="200" width="90" height="90" as="geometry" />
        </mxCell>
        <mxCell id="5" value="" style="shadow=0;dashed=0;html=1;strokeColor=none;labelPosition=center;verticalLabelPosition=bottom;verticalAlign=top;shape=mxgraph.office.users.user;fillColor=#2072B8;labelBackgroundColor=#ffffff;fontSize=36;align=left;" parent="1" vertex="1">
          <mxGeometry x="615.5" y="160" width="46" height="50" as="geometry" />
        </mxCell>
        <mxCell id="6" value="" style="shadow=0;dashed=0;html=1;strokeColor=none;labelPosition=center;verticalLabelPosition=bottom;verticalAlign=top;shape=mxgraph.office.users.user;fillColor=#7FBA42;labelBackgroundColor=#ffffff;fontSize=36;align=left;" parent="1" vertex="1">
          <mxGeometry x="606.5" y="332" width="46" height="50" as="geometry" />
        </mxCell>
        <mxCell id="7" value="" style="shadow=0;dashed=0;html=1;strokeColor=none;fillColor=#0079D6;labelPosition=center;verticalLabelPosition=bottom;verticalAlign=top;shape=mxgraph.azure.virtual_machine_feature;labelBackgroundColor=#ffffff;fontSize=36;align=left;" parent="1" vertex="1">
          <mxGeometry x="348" y="205" width="90" height="80" as="geometry" />
        </mxCell>
        <mxCell id="8" value="" style="aspect=fixed;perimeter=ellipsePerimeter;html=1;align=center;shadow=0;dashed=0;image;image=img/lib/ibm/security/vpn.svg;labelBackgroundColor=#ffffff;strokeColor=#000000;strokeWidth=1;fillColor=#000000;gradientColor=none;fontSize=36;" parent="1" vertex="1">
          <mxGeometry x="180" y="215" width="60" height="60" as="geometry" />
        </mxCell>
        <mxCell id="11" value="" style="endArrow=classic;html=1;strokeColor=#000000;strokeWidth=3;fontSize=36;" parent="1" edge="1">
          <mxGeometry width="50" height="50" relative="1" as="geometry">
            <mxPoint x="140" y="245" as="sourcePoint" />
            <mxPoint x="170" y="245" as="targetPoint" />
          </mxGeometry>
        </mxCell>
        <mxCell id="12" value="" style="endArrow=classic;html=1;strokeColor=#000000;strokeWidth=3;fontSize=36;" parent="1" edge="1">
          <mxGeometry width="50" height="50" relative="1" as="geometry">
            <mxPoint x="250" y="245" as="sourcePoint" />
            <mxPoint x="330" y="245" as="targetPoint" />
          </mxGeometry>
        </mxCell>
        <mxCell id="13" value="VPN" style="text;html=1;strokeColor=none;fillColor=none;align=center;verticalAlign=middle;whiteSpace=wrap;rounded=0;dashed=1;labelBackgroundColor=#ffffff;fontSize=16;" parent="1" vertex="1">
          <mxGeometry x="190" y="189" width="40" height="20" as="geometry" />
        </mxCell>
        <mxCell id="14" value="PAM Tool" style="text;html=1;strokeColor=none;fillColor=none;align=center;verticalAlign=middle;whiteSpace=wrap;rounded=0;dashed=1;labelBackgroundColor=#ffffff;fontSize=16;" parent="1" vertex="1">
          <mxGeometry x="325" y="301" width="137" height="50" as="geometry" />
        </mxCell>
        <mxCell id="18" value="" style="endArrow=none;dashed=1;html=1;strokeColor=#000000;strokeWidth=3;fontSize=36;" parent="1" edge="1">
          <mxGeometry width="50" height="50" relative="1" as="geometry">
            <mxPoint x="1020" y="670" as="sourcePoint" />
            <mxPoint x="1020" y="103" as="targetPoint" />
          </mxGeometry>
        </mxCell>
        <mxCell id="22" value="" style="endArrow=none;dashed=1;html=1;strokeColor=#000099;strokeWidth=3;fontSize=36;" parent="1" edge="1">
          <mxGeometry width="50" height="50" relative="1" as="geometry">
            <mxPoint x="801" y="299" as="sourcePoint" />
            <mxPoint x="801" y="130" as="targetPoint" />
          </mxGeometry>
        </mxCell>
        <mxCell id="23" value="" style="endArrow=none;dashed=1;html=1;strokeColor=#000099;strokeWidth=3;fontSize=36;" parent="1" edge="1">
          <mxGeometry width="50" height="50" relative="1" as="geometry">
            <mxPoint x="1011" y="293" as="sourcePoint" />
            <mxPoint x="1011" y="129" as="targetPoint" />
          </mxGeometry>
        </mxCell>
        <mxCell id="24" value="" style="endArrow=none;dashed=1;html=1;strokeColor=#000099;strokeWidth=3;fontSize=36;" parent="1" edge="1">
          <mxGeometry width="50" height="50" relative="1" as="geometry">
            <mxPoint x="801" y="130" as="sourcePoint" />
            <mxPoint x="1011" y="130" as="targetPoint" />
          </mxGeometry>
        </mxCell>
        <mxCell id="25" value="" style="endArrow=none;dashed=1;html=1;strokeColor=#000099;strokeWidth=3;fontSize=36;" parent="1" edge="1">
          <mxGeometry width="50" height="50" relative="1" as="geometry">
            <mxPoint x="801" y="298" as="sourcePoint" />
            <mxPoint x="1011" y="298" as="targetPoint" />
          </mxGeometry>
        </mxCell>
        <mxCell id="26" value="TIER 0" style="text;html=1;strokeColor=none;fillColor=none;align=center;verticalAlign=middle;whiteSpace=wrap;rounded=0;dashed=1;labelBackgroundColor=#ffffff;fontSize=16;" parent="1" vertex="1">
          <mxGeometry x="811" y="140" width="60" height="20" as="geometry" />
        </mxCell>
        <mxCell id="27" value="" style="shadow=0;dashed=0;html=1;strokeColor=none;shape=mxgraph.mscae.enterprise.domain_controller;fillColor=#00188D;labelBackgroundColor=#ffffff;fontSize=16;align=left;" parent="1" vertex="1">
          <mxGeometry x="843" y="176" width="36" height="50" as="geometry" />
        </mxCell>
        <mxCell id="29" value="" style="shadow=0;dashed=0;html=1;strokeColor=none;labelPosition=center;verticalLabelPosition=bottom;verticalAlign=top;shape=mxgraph.office.servers.physical_host_farm;fillColor=#2072B8;labelBackgroundColor=#ffffff;fontSize=16;align=left;" parent="1" vertex="1">
          <mxGeometry x="923" y="177" width="56" height="49" as="geometry" />
        </mxCell>
        <mxCell id="32" value="Domain Controller" style="text;html=1;strokeColor=none;fillColor=none;align=center;verticalAlign=middle;whiteSpace=wrap;rounded=0;dashed=1;labelBackgroundColor=#ffffff;fontSize=16;" parent="1" vertex="1">
          <mxGeometry x="831" y="242" width="60" height="20" as="geometry" />
        </mxCell>
        <mxCell id="33" value="Tier 0 Servers" style="text;html=1;strokeColor=none;fillColor=none;align=center;verticalAlign=middle;whiteSpace=wrap;rounded=0;dashed=1;labelBackgroundColor=#ffffff;fontSize=16;" parent="1" vertex="1">
          <mxGeometry x="923" y="242" width="60" height="20" as="geometry" />
        </mxCell>
        <mxCell id="45" value="" style="endArrow=none;dashed=1;html=1;strokeColor=#009900;strokeWidth=3;fontSize=36;" parent="1" edge="1">
          <mxGeometry width="50" height="50" relative="1" as="geometry">
            <mxPoint x="800" y="480" as="sourcePoint" />
            <mxPoint x="800" y="311" as="targetPoint" />
          </mxGeometry>
        </mxCell>
        <mxCell id="46" value="" style="endArrow=none;dashed=1;html=1;strokeColor=#009900;strokeWidth=3;fontSize=36;" parent="1" edge="1">
          <mxGeometry width="50" height="50" relative="1" as="geometry">
            <mxPoint x="1010" y="474" as="sourcePoint" />
            <mxPoint x="1010" y="310" as="targetPoint" />
          </mxGeometry>
        </mxCell>
        <mxCell id="47" value="" style="endArrow=none;dashed=1;html=1;strokeColor=#009900;strokeWidth=3;fontSize=36;" parent="1" edge="1">
          <mxGeometry width="50" height="50" relative="1" as="geometry">
            <mxPoint x="800" y="311" as="sourcePoint" />
            <mxPoint x="1010" y="311" as="targetPoint" />
          </mxGeometry>
        </mxCell>
        <mxCell id="48" value="" style="endArrow=none;dashed=1;html=1;strokeColor=#009900;strokeWidth=3;fontSize=36;" parent="1" edge="1">
          <mxGeometry width="50" height="50" relative="1" as="geometry">
            <mxPoint x="800" y="479" as="sourcePoint" />
            <mxPoint x="1010" y="479" as="targetPoint" />
          </mxGeometry>
        </mxCell>
        <mxCell id="49" value="TIER 1" style="text;html=1;strokeColor=none;fillColor=none;align=center;verticalAlign=middle;whiteSpace=wrap;rounded=0;dashed=1;labelBackgroundColor=#ffffff;fontSize=16;" parent="1" vertex="1">
          <mxGeometry x="810" y="321" width="60" height="20" as="geometry" />
        </mxCell>
        <mxCell id="51" value="" style="shadow=0;dashed=0;html=1;strokeColor=none;labelPosition=center;verticalLabelPosition=bottom;verticalAlign=top;shape=mxgraph.office.servers.physical_host_farm;fillColor=#006600;labelBackgroundColor=#ffffff;fontSize=16;align=left;" parent="1" vertex="1">
          <mxGeometry x="922" y="358" width="56" height="49" as="geometry" />
        </mxCell>
        <mxCell id="53" value="Tier 1 Servers" style="text;html=1;strokeColor=none;fillColor=none;align=center;verticalAlign=middle;whiteSpace=wrap;rounded=0;dashed=1;labelBackgroundColor=#ffffff;fontSize=16;" parent="1" vertex="1">
          <mxGeometry x="922" y="423" width="60" height="20" as="geometry" />
        </mxCell>
        <mxCell id="54" value="" style="shadow=0;dashed=0;html=1;strokeColor=none;shape=mxgraph.mscae.intune.detected_software;fillColor=#006600;labelBackgroundColor=#ffffff;fontSize=16;align=left;" parent="1" vertex="1">
          <mxGeometry x="834" y="358" width="50" height="50" as="geometry" />
        </mxCell>
        <mxCell id="55" value="Tier 1 Applications" style="text;html=1;strokeColor=none;fillColor=none;align=center;verticalAlign=middle;whiteSpace=wrap;rounded=0;dashed=1;labelBackgroundColor=#ffffff;fontSize=16;" parent="1" vertex="1">
          <mxGeometry x="829" y="425" width="60" height="20" as="geometry" />
        </mxCell>
        <mxCell id="56" value="Tier&amp;nbsp; 1 Admin&lt;div&gt;Creds&lt;/div&gt;" style="text;html=1;strokeColor=none;fillColor=none;align=center;verticalAlign=middle;whiteSpace=wrap;rounded=0;dashed=1;labelBackgroundColor=#ffffff;fontSize=16;" parent="1" vertex="1">
          <mxGeometry x="584.5" y="382" width="77" height="61" as="geometry" />
        </mxCell>
        <mxCell id="57" value="Core Tier&amp;nbsp; 0 Admin&lt;div&gt;Creds&lt;/div&gt;" style="text;html=1;strokeColor=none;fillColor=none;align=center;verticalAlign=middle;whiteSpace=wrap;rounded=0;dashed=1;labelBackgroundColor=#ffffff;fontSize=16;" parent="1" vertex="1">
          <mxGeometry x="597" y="230" width="89" height="20" as="geometry" />
        </mxCell>
        <mxCell id="58" value="" style="curved=1;endArrow=classic;html=1;strokeColor=#000099;strokeWidth=3;fontSize=16;" parent="1" edge="1">
          <mxGeometry width="50" height="50" relative="1" as="geometry">
            <mxPoint x="695" y="226" as="sourcePoint" />
            <mxPoint x="790" y="226" as="targetPoint" />
            <Array as="points">
              <mxPoint x="695" y="226" />
              <mxPoint x="750" y="220" />
            </Array>
          </mxGeometry>
        </mxCell>
        <mxCell id="59" value="" style="endArrow=classic;html=1;strokeColor=#006600;strokeWidth=3;fontSize=16;" parent="1" edge="1">
          <mxGeometry width="50" height="50" relative="1" as="geometry">
            <mxPoint x="710" y="400" as="sourcePoint" />
            <mxPoint x="773" y="400" as="targetPoint" />
          </mxGeometry>
        </mxCell>
        <mxCell id="60" value="" style="endArrow=classic;html=1;strokeColor=#000000;strokeWidth=3;fontSize=16;" parent="1" edge="1">
          <mxGeometry width="50" height="50" relative="1" as="geometry">
            <mxPoint x="449" y="211" as="sourcePoint" />
            <mxPoint x="590" y="211" as="targetPoint" />
          </mxGeometry>
        </mxCell>
        <mxCell id="61" value="" style="endArrow=classic;html=1;strokeColor=#000000;strokeWidth=3;fontSize=16;" parent="1" edge="1">
          <mxGeometry width="50" height="50" relative="1" as="geometry">
            <mxPoint x="453" y="290" as="sourcePoint" />
            <mxPoint x="570" y="350" as="targetPoint" />
          </mxGeometry>
        </mxCell>
        <mxCell id="88" value="" style="endArrow=none;dashed=1;html=1;strokeColor=#4C0099;strokeWidth=3;fontSize=36;" parent="1" edge="1">
          <mxGeometry width="50" height="50" relative="1" as="geometry">
            <mxPoint x="800" y="656.5" as="sourcePoint" />
            <mxPoint x="800" y="509.5" as="targetPoint" />
          </mxGeometry>
        </mxCell>
        <mxCell id="89" value="" style="endArrow=none;dashed=1;html=1;strokeColor=#4C0099;strokeWidth=3;fontSize=36;" parent="1" edge="1">
          <mxGeometry width="50" height="50" relative="1" as="geometry">
            <mxPoint x="945" y="656.5" as="sourcePoint" />
            <mxPoint x="945" y="509.5" as="targetPoint" />
          </mxGeometry>
        </mxCell>
        <mxCell id="90" value="" style="endArrow=none;dashed=1;html=1;strokeColor=#4C0099;strokeWidth=3;fontSize=36;" parent="1" edge="1">
          <mxGeometry width="50" height="50" relative="1" as="geometry">
            <mxPoint x="806" y="509.5" as="sourcePoint" />
            <mxPoint x="951" y="509.5" as="targetPoint" />
            <Array as="points">
              <mxPoint x="884" y="509.5" />
            </Array>
          </mxGeometry>
        </mxCell>
        <mxCell id="91" value="" style="endArrow=none;dashed=1;html=1;strokeColor=#4C0099;strokeWidth=3;fontSize=36;" parent="1" edge="1">
          <mxGeometry width="50" height="50" relative="1" as="geometry">
            <mxPoint x="801" y="654.5" as="sourcePoint" />
            <mxPoint x="945" y="654.5" as="targetPoint" />
          </mxGeometry>
        </mxCell>
        <mxCell id="92" value="" style="shadow=0;dashed=0;html=1;strokeColor=#4C0099;labelPosition=center;verticalLabelPosition=bottom;verticalAlign=top;shape=mxgraph.office.servers.physical_host_farm;fillColor=#4C0099;labelBackgroundColor=#ffffff;fontSize=16;align=left;" parent="1" vertex="1">
          <mxGeometry x="840" y="541.5" width="56" height="49" as="geometry" />
        </mxCell>
        <mxCell id="93" value="Tier 2 Servers" style="text;html=1;strokeColor=none;fillColor=none;align=center;verticalAlign=middle;whiteSpace=wrap;rounded=0;dashed=1;labelBackgroundColor=#ffffff;fontSize=16;" parent="1" vertex="1">
          <mxGeometry x="840" y="609.5" width="60" height="20" as="geometry" />
        </mxCell>
        <mxCell id="96" value="" style="curved=1;endArrow=classic;html=1;strokeColor=#000000;strokeWidth=3;fontSize=16;" parent="1" edge="1">
          <mxGeometry width="50" height="50" relative="1" as="geometry">
            <mxPoint x="430" y="360" as="sourcePoint" />
            <mxPoint x="590" y="520" as="targetPoint" />
            <Array as="points">
              <mxPoint x="480" y="420" />
              <mxPoint x="490" y="510" />
            </Array>
          </mxGeometry>
        </mxCell>
        <mxCell id="87" value="" style="shadow=0;dashed=0;html=1;strokeColor=#4C0099;labelPosition=center;verticalLabelPosition=bottom;verticalAlign=top;shape=mxgraph.office.users.user;fillColor=#4C0099;labelBackgroundColor=#ffffff;fontSize=36;align=left;" parent="1" vertex="1">
          <mxGeometry x="615" y="507" width="46" height="50" as="geometry" />
        </mxCell>
        <mxCell id="103" value="Tier 2 Admin Creds" style="text;html=1;strokeColor=none;fillColor=none;align=center;verticalAlign=middle;whiteSpace=wrap;rounded=0;dashed=1;labelBackgroundColor=#ffffff;fontSize=16;" parent="1" vertex="1">
          <mxGeometry x="580" y="573" width="117" height="20" as="geometry" />
        </mxCell>
        <mxCell id="111" value="" style="endArrow=classic;html=1;strokeColor=#6600CC;strokeWidth=3;fontSize=36;" parent="1" edge="1">
          <mxGeometry width="50" height="50" relative="1" as="geometry">
            <mxPoint x="686" y="549.5" as="sourcePoint" />
            <mxPoint x="786" y="560" as="targetPoint" />
          </mxGeometry>
        </mxCell>
        <mxCell id="112" value="" style="endArrow=none;html=1;strokeColor=#000000;strokeWidth=3;fontSize=36;" parent="1" edge="1">
          <mxGeometry width="50" height="50" relative="1" as="geometry">
            <mxPoint x="1030" y="680" as="sourcePoint" />
            <mxPoint x="1030" as="targetPoint" />
          </mxGeometry>
        </mxCell>
        <mxCell id="113" value="" style="endArrow=none;html=1;strokeColor=#000000;strokeWidth=3;fontSize=36;" parent="1" edge="1">
          <mxGeometry width="50" height="50" relative="1" as="geometry">
            <mxPoint x="1030" as="sourcePoint" />
            <mxPoint x="20" as="targetPoint" />
          </mxGeometry>
        </mxCell>
        <mxCell id="114" value="" style="endArrow=none;html=1;strokeColor=#000000;strokeWidth=3;fontSize=36;" parent="1" edge="1">
          <mxGeometry width="50" height="50" relative="1" as="geometry">
            <mxPoint x="20" y="680" as="sourcePoint" />
            <mxPoint x="20" as="targetPoint" />
          </mxGeometry>
        </mxCell>
        <mxCell id="115" value="" style="endArrow=none;html=1;strokeColor=#000000;strokeWidth=3;fontSize=36;" parent="1" edge="1">
          <mxGeometry width="50" height="50" relative="1" as="geometry">
            <mxPoint x="1030" y="680" as="sourcePoint" />
            <mxPoint x="20" y="680" as="targetPoint" />
          </mxGeometry>
        </mxCell>
        <mxCell id="116" value="Sample Credential Tiers" style="text;html=1;strokeColor=none;fillColor=none;align=center;verticalAlign=middle;whiteSpace=wrap;rounded=0;dashed=1;labelBackgroundColor=#ffffff;fontSize=36;" parent="1" vertex="1">
          <mxGeometry x="319" y="40" width="531" height="20" as="geometry" />
        </mxCell>
        <mxCell id="bx_4jBKmrVyLjTU5XmQp-129" value="" style="shadow=0;dashed=0;html=1;strokeColor=none;labelPosition=center;verticalLabelPosition=bottom;verticalAlign=top;shape=mxgraph.office.users.user;fillColor=#7FBA42;labelBackgroundColor=#ffffff;fontSize=36;align=left;" parent="1" vertex="1">
          <mxGeometry x="217" y="1225" width="46" height="50" as="geometry" />
        </mxCell>
        <mxCell id="bx_4jBKmrVyLjTU5XmQp-130" value="&lt;div&gt;ET#### Creds&lt;/div&gt;&lt;div&gt;&#39;pvanderv&#39;&lt;br&gt;&lt;/div&gt;" style="text;html=1;strokeColor=none;fillColor=none;align=center;verticalAlign=middle;whiteSpace=wrap;rounded=0;dashed=1;labelBackgroundColor=#ffffff;fontSize=16;" parent="1" vertex="1">
          <mxGeometry x="179" y="1287" width="117" height="20" as="geometry" />
        </mxCell>
        <mxCell id="bx_4jBKmrVyLjTU5XmQp-131" value="" style="shadow=0;dashed=0;html=1;strokeColor=#6c8ebf;labelPosition=center;verticalLabelPosition=bottom;verticalAlign=top;shape=mxgraph.office.users.user;fillColor=#dae8fc;labelBackgroundColor=#ffffff;fontSize=36;align=left;" parent="1" vertex="1">
          <mxGeometry x="399" y="1120" width="46" height="50" as="geometry" />
        </mxCell>
        <mxCell id="bx_4jBKmrVyLjTU5XmQp-132" value="&lt;div&gt;ET#### Tier 0 Admin&lt;br&gt;&lt;/div&gt;&lt;div&gt;&#39;pvanderv-t0&#39;&lt;br&gt;&lt;/div&gt;" style="text;html=1;strokeColor=none;fillColor=none;align=center;verticalAlign=middle;whiteSpace=wrap;rounded=0;dashed=1;labelBackgroundColor=#ffffff;fontSize=16;" parent="1" vertex="1">
          <mxGeometry x="450" y="1125" width="162" height="45" as="geometry" />
        </mxCell>
        <mxCell id="bx_4jBKmrVyLjTU5XmQp-133" value="" style="shadow=0;dashed=0;html=1;strokeColor=#d79b00;labelPosition=center;verticalLabelPosition=bottom;verticalAlign=top;shape=mxgraph.office.users.user;fillColor=#ffe6cc;labelBackgroundColor=#ffffff;fontSize=36;align=left;" parent="1" vertex="1">
          <mxGeometry x="397" y="1210" width="46" height="49" as="geometry" />
        </mxCell>
        <mxCell id="bx_4jBKmrVyLjTU5XmQp-135" value="" style="shadow=0;dashed=0;html=1;strokeColor=#d6b656;labelPosition=center;verticalLabelPosition=bottom;verticalAlign=top;shape=mxgraph.office.users.user;fillColor=#fff2cc;labelBackgroundColor=#ffffff;fontSize=36;align=left;" parent="1" vertex="1">
          <mxGeometry x="399" y="1292" width="46" height="50" as="geometry" />
        </mxCell>
        <mxCell id="bx_4jBKmrVyLjTU5XmQp-137" value="" style="shadow=0;dashed=0;html=1;strokeColor=#9673a6;labelPosition=center;verticalLabelPosition=bottom;verticalAlign=top;shape=mxgraph.office.users.user;fillColor=#e1d5e7;labelBackgroundColor=#ffffff;fontSize=36;align=left;" parent="1" vertex="1">
          <mxGeometry x="401" y="1380" width="46" height="50" as="geometry" />
        </mxCell>
        <mxCell id="bx_4jBKmrVyLjTU5XmQp-142" value="&lt;div&gt;ET#### Tier 1 Admin&lt;br&gt;&lt;/div&gt;&lt;div&gt;&#39;pvanderv-t1&#39;&lt;br&gt;&lt;/div&gt;" style="text;html=1;strokeColor=none;fillColor=none;align=center;verticalAlign=middle;whiteSpace=wrap;rounded=0;dashed=1;labelBackgroundColor=#ffffff;fontSize=16;" parent="1" vertex="1">
          <mxGeometry x="451" y="1212" width="162" height="45" as="geometry" />
        </mxCell>
        <mxCell id="bx_4jBKmrVyLjTU5XmQp-143" value="&lt;div&gt;ET#### Tier 2 Admin&lt;br&gt;&lt;/div&gt;&lt;div&gt;&#39;pvanderv-t2&#39;&lt;br&gt;&lt;/div&gt;" style="text;html=1;strokeColor=none;fillColor=none;align=center;verticalAlign=middle;whiteSpace=wrap;rounded=0;dashed=1;labelBackgroundColor=#ffffff;fontSize=16;" parent="1" vertex="1">
          <mxGeometry x="456" y="1297" width="162" height="45" as="geometry" />
        </mxCell>
        <mxCell id="bx_4jBKmrVyLjTU5XmQp-146" value="&lt;div&gt;ET#### Tier 2 User/EMP&lt;br&gt;&lt;/div&gt;&lt;div&gt;&#39;pvanderv&#39;&lt;br&gt;&lt;/div&gt;" style="text;html=1;strokeColor=none;fillColor=none;align=center;verticalAlign=middle;whiteSpace=wrap;rounded=0;dashed=1;labelBackgroundColor=#ffffff;fontSize=16;" parent="1" vertex="1">
          <mxGeometry x="462" y="1385" width="182" height="45" as="geometry" />
        </mxCell>
        <mxCell id="Mla9CmVgRFI_YTTpmjvz-129" value="" style="endArrow=none;dashed=1;html=1;strokeColor=#000000;strokeWidth=3;fontSize=36;" edge="1" parent="1">
          <mxGeometry width="50" height="50" relative="1" as="geometry">
            <mxPoint x="280" y="667" as="sourcePoint" />
            <mxPoint x="280" y="100" as="targetPoint" />
          </mxGeometry>
        </mxCell>
        <mxCell id="Mla9CmVgRFI_YTTpmjvz-130" value="" style="endArrow=none;dashed=1;html=1;strokeColor=#000000;strokeWidth=3;fontSize=36;" edge="1" parent="1">
          <mxGeometry width="50" height="50" relative="1" as="geometry">
            <mxPoint x="280" y="100" as="sourcePoint" />
            <mxPoint x="1020" y="100" as="targetPoint" />
          </mxGeometry>
        </mxCell>
        <mxCell id="Mla9CmVgRFI_YTTpmjvz-131" value="" style="endArrow=none;dashed=1;html=1;strokeColor=#000000;strokeWidth=3;fontSize=36;" edge="1" parent="1">
          <mxGeometry width="50" height="50" relative="1" as="geometry">
            <mxPoint x="280" y="670" as="sourcePoint" />
            <mxPoint x="1020" y="670" as="targetPoint" />
          </mxGeometry>
        </mxCell>
      </root>
    </mxGraphModel>
  </diagram>
</mxfile>
